#!OML:ASF F:\VICON\USERDATA\INSTALL\SteveWalk\SteveWalk.ASF
:FULLY-SPECIFIED
:DEGREES
262
root -0.201942 16.4168 11.0245 16.2843 3.36972 -0.706288
lowerback -14.5398 -0.640262 2.2691
upperback -5.01375 -1.24984 2.38766
thorax 2.85812 -0.615311 1.00851
lowerneck -4.18021 0.283666 0.499089
upperneck 9.1384 0.665523 -3.46157
head 3.72635 0.200855 -1.20277
rclavicle 1.42597e-014 -2.38542e-015
rhumerus -42.6507 -34.2028 -63.1999
rradius 15.0586
rwrist 22.9346
rhand -17.9233 -36.0015
rfingers 7.12502
rthumb 8.34434 -65.8167
lclavicle 1.42597e-014 -2.38542e-015
lhumerus -35.2203 4.7021 86.1656
lradius 29.729
lwrist 4.34755
lhand -22.2752 -18.5334
lfingers 7.12502
lthumb 4.14307 11.4061
rfemur -30.8181 -1.71559 24.4317
rtibia 36.9947
rfoot -22.3504 1.56198
rtoes -11.8328
lfemur -38.2568 2.70693 -20.1178
ltibia 72.2847
lfoot -6.57053 3.13483
ltoes -2.82382
263
root -0.213097 16.418 11.2279 16.0988 3.45695 -0.831803
lowerback -14.4167 -0.663822 2.1507
upperback -5.0543 -1.25956 2.4224
thorax 2.75297 -0.620108 1.11165
lowerneck -3.74801 0.274212 0.380533
upperneck 9.16094 0.645534 -3.30563
head 3.64695 0.196931 -1.12899
rclavicle 1.78533e-014 -4.13472e-014
rhumerus -39.5357 -29.9918 -67.7514
rradius 16.0492
rwrist 18.067
rhand -18.4511 -34.4992
rfingers 7.12502
rthumb 7.83499 -64.334
lclavicle 1.78533e-014 -4.13472e-014
lhumerus -35.9089 6.06422 85.4688
lradius 27.3566
lwrist 2.25037
lhand -22.0828 -19.4066
lfingers 7.12502
lthumb 4.32883 10.5292
rfemur -29.6446 -1.69356 24.6526
rtibia 36.7669
rfoot -22.9683 1.18051
rtoes -12.3356
lfemur -39.3661 2.91906 -20.0857
ltibia 71.2509
lfoot -7.98173 3.38917
ltoes -4.0533
264
root -0.219445 16.4094 11.4287 15.9967 3.57415 -0.952094
lowerback -14.4123 -0.629616 2.09937
upperback -4.95594 -1.20969 2.40881
thorax 2.85459 -0.594139 1.13397
lowerneck -3.76795 0.222077 0.389246
upperneck 9.17604 0.570139 -3.2478
head 3.65397 0.162029 -1.11479
rclavicle -8.89872e-015 7.15625e-015
rhumerus -36.9613 -26.6793 -71.189
rradius 17.0392
rwrist 13.9489
rhand -19.0027 -32.098
rfingers 7.12502
rthumb 7.30257 -61.952
lclavicle -8.89872e-015 7.15625e-015
lhumerus -36.0527 7.84536 84.475
lradius 24.5062
lwrist -0.847653
lhand -21.6821 -19.6154
lfingers 7.12502
lthumb 4.71569 10.3121
rfemur -28.6299 -1.83974 24.8878
rtibia 36.5689
rfoot -23.5227 0.940992
rtoes -12.6633
lfemur -40.4409 3.06221 -20.0787
ltibia 70.087
lfoot -8.61643 3.77581
ltoes -3.02627
265
root -0.209685 16.3983 11.6296 16.109 3.74973 -1.04553
lowerback -14.4491 -0.554062 2.2839
upperback -5.02721 -1.13031 2.32124
thorax 2.79331 -0.556339 0.951436
lowerneck -3.62065 0.142299 0.452884
upperneck 9.09988 0.454933 -3.2414
head 3.59641 0.109443 -1.12742
rclavicle -1.35608e-014 4.77083e-015
rhumerus -34.9603 -23.3522 -74.0987
rradius 18.4734
rwrist 10.195
rhand -19.0408 -31.757
rfingers 7.12502
rthumb 7.26574 -61.6123
lclavicle -1.35608e-014 4.77083e-015
lhumerus -36.6025 9.72678 83.2256
lradius 22.0229
lwrist -4.28842
lhand -20.64 -18.3801
lfingers 7.12502
lthumb 5.72193 11.5227
rfemur -27.8979 -2.63315 25.1301
rtibia 36.5091
rfoot -24.2882 1.15133
rtoes -13.7201
lfemur -41.6493 3.08405 -20.2346
ltibia 68.7668
lfoot -8.69352 4.63011
ltoes -2.4407
266
root -0.22124 16.3752 11.8298 16.2256 3.37423 -0.936709
lowerback -14.5245 -0.455811 1.81899
upperback -5.0867 -0.935713 2.27899
thorax 2.77848 -0.457851 1.20135
lowerneck -3.29275 0.114336 0.273032
upperneck 8.94774 0.405385 -3.03567
head 3.47606 0.0910517 -1.0266
rclavicle 6.11263e-015 -1.35174e-014
rhumerus -33.1121 -19.9527 -76.6163
rradius 20.159
rwrist 7.13448
rhand -18.5007 -33.4424
rfingers 7.12502
rthumb 7.78709 -63.279
lclavicle 6.11263e-015 -1.35174e-014
lhumerus -37.4802 11.8437 81.7278
lradius 20.0054
lwrist -7.84554
lhand -19.422 -17.4302
lfingers 7.12502
lthumb 6.89777 12.4374
rfemur -27.2619 -2.45472 25.0461
rtibia 36.5768
rfoot -24.9414 0.836189
rtoes -15.0896
lfemur -42.902 3.55305 -20.6398
ltibia 67.2898
lfoot -9.0194 5.39631
ltoes -2.08569
267
root -0.223844 16.3494 12.0264 16.3559 3.19011 -0.709247
lowerback -14.6846 -0.420893 1.39668
upperback -5.07129 -0.833245 2.20711
thorax 2.88506 -0.404851 1.38071
lowerneck -3.24918 0.0553668 0.0203268
upperneck 8.99406 0.323522 -2.80658
head 3.47938 0.0508931 -0.910021
rclavicle -6.33626e-015 5.56597e-015
rhumerus -31.3014 -17.3344 -78.4083
rradius 21.5339
rwrist 5.01098
rhand -18.1405 -33.8112
rfingers 7.12502
rthumb 8.13476 -63.6346
lclavicle -6.33626e-015 5.56597e-015
lhumerus -38.3606 14.7173 79.701
lradius 18.0275
lwrist -12.3156
lhand -18.3058 -16.8571
lfingers 7.12502
lthumb 7.97521 12.9724
rfemur -26.6017 -2.56782 24.8215
rtibia 36.6037
rfoot -25.6435 1.08737
rtoes -14.5275
lfemur -44.0759 3.74504 -21.149
ltibia 65.6181
lfoot -9.70918 5.92179
ltoes -0.384613
268
root -0.216774 16.3303 12.2271 16.5627 3.05018 -0.62178
lowerback -14.8231 -0.324886 1.31659
upperback -5.13752 -0.692743 2.09787
thorax 2.88727 -0.335202 1.33486
lowerneck -3.23687 -0.0122363 0.0425031
upperneck 9.07295 0.232111 -2.7951
head 3.50294 0.00621938 -0.914401
rclavicle 1.25234e-014 -1.19271e-014
rhumerus -29.7589 -15.3976 -79.69
rradius 22.6395
rwrist 3.22118
rhand -18.1613 -32.9973
rfingers 7.12502
rthumb 8.11461 -62.8215
lclavicle 1.25234e-014 -1.19271e-014
lhumerus -39.6201 18.2194 76.8695
lradius 16.0113
lwrist -17.7197
lhand -17.1578 -16.2573
lfingers 7.12502
lthumb 9.08308 13.5272
rfemur -25.9622 -3.0878 24.7708
rtibia 36.4855
rfoot -26.3504 1.61761
rtoes -13.2346
lfemur -45.1255 3.83365 -21.5148
ltibia 63.7007
lfoot -10.395 6.50723
ltoes -0.214086
269
root -0.206109 16.3204 12.4394 16.8606 2.89054 -0.821939
lowerback -15.1225 -0.187365 1.54682
upperback -5.1935 -0.549231 2.05026
thorax 2.98358 -0.264949 1.17892
lowerneck -3.20688 0.00488754 0.189684
upperneck 8.97285 0.247299 -2.84568
head 3.46346 0.0178788 -0.955364
rclavicle -7.36124e-016 7.95139e-016
rhumerus -28.2725 -13.6025 -80.8083
rradius 23.7897
rwrist 1.40671
rhand -18.2137 -32.6129
rfingers 7.12502
rthumb 8.06411 -62.439
lclavicle -7.36124e-016 7.95139e-016
lhumerus -41.3127 22.3966 73.0849
lradius 14.0923
lwrist -24.171
lhand -16.0726 -16.0855
lfingers 7.12502
lthumb 10.1301 13.6506
rfemur -25.3614 -3.78921 25.0497
rtibia 36.1965
rfoot -26.9805 2.29177
rtoes -12.1314
lfemur -46.1457 3.96616 -21.585
ltibia 61.504
lfoot -10.6927 7.20665
ltoes -1.28594
270
root -0.193965 16.323 12.6539 17.0805 2.86994 -1.02673
lowerback -15.4067 -0.0930034 1.81282
upperback -5.2353 -0.469286 2.0064
thorax 3.08767 -0.226197 0.996425
lowerneck -3.11631 0.0334784 0.300416
upperneck 8.89512 0.275863 -2.84236
head 3.41996 0.0372379 -0.971532
rclavicle 3.50669e-015 -2.14687e-014
rhumerus -26.9784 -11.4869 -81.802
rradius 25.0912
rwrist -0.699353
rhand -17.9444 -32.2909
rfingers 7.12502
rthumb 8.32396 -62.1069
lclavicle 3.50669e-015 -2.14687e-014
lhumerus -43.6447 26.4127 68.767
lradius 12.7348
lwrist -30.7286
lhand -15.0006 -16.0654
lfingers 7.12502
lthumb 11.1642 13.6176
rfemur -24.5261 -4.51979 25.3039
rtibia 35.7097
rfoot -27.4767 3.21087
rtoes -11.1309
lfemur -46.9464 3.96891 -21.5941
ltibia 58.9961
lfoot -10.8239 7.85379
ltoes -1.76969
